<svg xmlns:dc="http://purl.org/dc/elements/1.1/" xmlns:cc="http://creativecommons.org/ns#" xmlns:rdf="http://www.w3.org/1999/02/22-rdf-syntax-ns#" xmlns:svg="http://www.w3.org/2000/svg" xmlns="http://www.w3.org/2000/svg" xmlns:sodipodi="http://sodipodi.sourceforge.net/DTD/sodipodi-0.dtd" xmlns:inkscape="http://www.inkscape.org/namespaces/inkscape" version="1.1" x="0px" y="0px" viewBox="0 0 100 125"><g transform="translate(0,-952.36218)"><path d="m 42.343651,954.36216 c 2.69444,9.06602 6.11253,19.19154 0,25.25202 11.20629,-3.03024 9.16878,-14.14113 0,-25.25202 z m 9.16878,5.0504 c 6.11251,19.19202 -9.16878,27.27266 -10.18752,42.42344 0,15.1517 6.11251,20.2016 16.30003,20.2016 15.2813,0 16.36959,-9.8412 16.30005,-18.1815 0,-7.07007 -7.74974,-13.56365 -10.18753,-23.23184 -0.28068,-1.11315 -0.59591,-2.17524 -0.92325,-3.21963 -5.90879,16.14776 -7.88157,33.28927 0.92325,39.58257 -7.13127,0 -10.18752,-2.0202 -11.20628,-9.0907 -1.17142,-18.97125 14.0324,-34.19248 -1.01875,-48.48394 z m -7.38596,61.55184 c -5.67579,0.8039 -14.553729,0.9997 -18.464889,2.0517 2.67292,0.2235 5.50763,1.5451 6.23986,8.0807 -3.36083,-5.8333 -7.40537,-4.1377 -8.72306,-6.1868 -3.89463,6.752 2.78592,13.1823 6.68556,12.2157 10.187529,-6.0605 12.225029,-7.0706 18.337539,-11.1109 1.01875,-2.0202 -2.0375,-5.0504 -4.07501,-5.0504 z m 20.62974,2.0833 c -9.85188,7.8144 -21.60008,9.9773 -29.73484,14.6777 3.15593,0.2607 7.05137,1.6211 7.83166,8.5857 -3.23558,-5.6159 -7.89533,-4.5742 -9.67815,-6.4393 -3.032689,6.0345 2.873,9.5208 12.22503,10.4481 10.18754,-6.0605 19.3563,-15.1512 22.41256,-22.2218 0.51932,-1.0298 0.23568,-2.5852 -0.43584,-3.7289 -0.82855,-1.1121 -1.45973,-1.5717 -2.62042,-1.3215 z m 9.16878,5.1767 c -0.76455,0.044 -1.49723,0.3481 -2.03751,0.8838 -3.40532,4.5018 -7.78419,9.4187 -9.2006,12.8154 3.73299,-0.8869 9.82823,-0.8748 12.25686,2.3358 -4.98739,-2.4725 -9.51515,0.7591 -12.67073,-0.1578 0.006,0.07 -0.0126,0.1537 0,0.2209 0.44318,8.0299 10.63323,7.0075 15.72699,2.9671 0,-8.0806 -1.01875,-12.1209 -1.01875,-17.1713 -0.45023,-1.3392 -1.78202,-1.9677 -3.05626,-1.8939 z" style="color:#000000;enable-background:accumulate;" fill="#000000" stroke="none" marker="none" visibility="visible" display="inline" overflow="visible"/></g><text x="0" y="115" fill="#000000" font-size="5px" font-weight="bold" font-family="'Helvetica Neue', Helvetica, Arial-Unicode, Arial, Sans-serif">Created by Orin zuu</text><text x="0" y="120" fill="#000000" font-size="5px" font-weight="bold" font-family="'Helvetica Neue', Helvetica, Arial-Unicode, Arial, Sans-serif">from the Noun Project</text></svg>